<svg class="icon" viewBox="0 0 1088 1024" xmlns="http://www.w3.org/2000/svg" width="200" height="200"><path d="M278.528 828.224C126.016 828.224 2.048 700.736 2.048 544s124.032-284.224 276.48-284.224a274.56 274.56 0 0 1 219.136 110.72l-62.208 60.864a189.952 189.952 0 0 0-156.928-84.16c-105.472 0-191.232 88.32-191.232 196.8 0 108.48 85.824 196.8 191.232 196.8 55.552 0 135.616-123.456 200.064-222.592C564.928 385.216 646.4 259.712 745.664 259.712c152.128 0 275.84 127.104 275.84 283.392s-123.712 283.392-275.84 283.392c-85.696 0-166.4-41.024-218.496-110.528L588.8 654.4a189.696 189.696 0 0 0 156.864 84.672c105.088 0 190.592-87.936 190.592-195.968 0-108.032-85.504-195.968-190.592-195.968-53.504 0-132.672 121.728-196.16 219.584-87.36 134.528-169.856 261.504-270.976 261.504z" fill="#515151"/></svg>